HIERARCHY
ROOT Hips
{
	OFFSET 0.000000 0.000000 0.000000
	CHANNELS 6 Xposition Yposition Zposition Xrotation Yrotation Zrotation
	JOINT LeftUpLeg_virtual
	{
		OFFSET 0.000000 0.000000 0.000000
		CHANNELS 3 Xrotation Yrotation Zrotation
		JOINT LeftUpLeg
		{
			OFFSET 15.427100 -6.655098 0.678600
			CHANNELS 3 Xrotation Yrotation Zrotation
			JOINT LeftLeg
			{
				OFFSET 4.081073 -39.591068 13.024000
				CHANNELS 3 Xrotation Yrotation Zrotation
				JOINT LeftFoot
				{
					OFFSET -4.081074 -37.707932 -15.979700
					CHANNELS 3 Xrotation Yrotation Zrotation
					JOINT LeftToeBase
					{
						OFFSET 5.346399 -15.068900 20.645000
						CHANNELS 3 Xrotation Yrotation Zrotation
						JOINT LeftToe_End
						{
							OFFSET 2.754700 0.931300 11.300900
							CHANNELS 3 Xrotation Yrotation Zrotation
							End Site
							{
								OFFSET 0 0 0
							}
						}
					}
				}
			}
		}
	}
	JOINT RightUpLeg_virtual
	{
		OFFSET 0.000000 0.000000 0.000000
		CHANNELS 3 Xrotation Yrotation Zrotation
		JOINT RightUpLeg
		{
			OFFSET -15.569500 -6.655098 0.678600
			CHANNELS 3 Xrotation Yrotation Zrotation
			JOINT RightLeg
			{
				OFFSET -4.081825 -39.591045 13.023800
				CHANNELS 3 Xrotation Yrotation Zrotation
				JOINT RightFoot
				{
					OFFSET 4.081824 -37.707954 -15.979600
					CHANNELS 3 Xrotation Yrotation Zrotation
					JOINT RightToeBase
					{
						OFFSET -5.346400 -15.068900 20.645000
						CHANNELS 3 Xrotation Yrotation Zrotation
						JOINT RightToe_End
						{
							OFFSET -2.754700 0.931300 11.300900
							CHANNELS 3 Xrotation Yrotation Zrotation
							End Site
							{
								OFFSET 0 0 0
							}
						}
					}
				}
			}
		}
	}
	JOINT Spine_virtual
	{
		OFFSET 0.000000 0.000000 0.000000
		CHANNELS 3 Xrotation Yrotation Zrotation
		JOINT Spine
		{
			OFFSET -0.279200 12.230698 -2.892100
			CHANNELS 3 Xrotation Yrotation Zrotation
			JOINT Spine1
			{
				OFFSET -0.232667 10.192268 -1.242267
				CHANNELS 3 Xrotation Yrotation Zrotation
				JOINT Spine1_split
				{
					OFFSET -0.232667 10.192268 -1.242267
					CHANNELS 3 Xrotation Yrotation Zrotation
					JOINT Spine2
					{
						OFFSET -0.232667 10.192268 -1.242267
						CHANNELS 3 Xrotation Yrotation Zrotation
						JOINT Neck_virtual
						{
							OFFSET 0.000000 0.000000 0.000000
							CHANNELS 3 Xrotation Yrotation Zrotation
							JOINT Neck
							{
								OFFSET -0.418800 17.814194 8.416900
								CHANNELS 3 Xrotation Yrotation Zrotation
								JOINT Head
								{
									OFFSET 0.000000 7.031097 3.806800
									CHANNELS 3 Xrotation Yrotation Zrotation
									JOINT HeadTop_End
									{
										OFFSET 0.000000 24.646606 12.978600
										CHANNELS 3 Xrotation Yrotation Zrotation
										End Site
										{
											OFFSET 0 0 0
										}
									}
								}
							}
						}
						JOINT LeftShoulder_virtual
						{
							OFFSET 0.000000 0.000000 0.000000
							CHANNELS 3 Xrotation Yrotation Zrotation
							JOINT LeftShoulder
							{
								OFFSET 8.476499 7.247704 -3.868750
								CHANNELS 3 Xrotation Yrotation Zrotation
								JOINT LeftShoulder_split
								{
									OFFSET 8.476499 7.247704 -3.868750
									CHANNELS 3 Xrotation Yrotation Zrotation
									JOINT LeftArm
									{
										OFFSET 9.308998 -2.777710 0.208600
										CHANNELS 3 Xrotation Yrotation Zrotation
										JOINT LeftForeArm
										{
											OFFSET 29.972298 0.000000 0.000000
											CHANNELS 3 Xrotation Yrotation Zrotation
											JOINT LeftHand
											{
												OFFSET 26.026505 0.000000 0.000000
												CHANNELS 3 Xrotation Yrotation Zrotation
												End Site
												{
													OFFSET 0 0 0
												}
											}
										}
									}
								}
							}
						}
						JOINT RightShoulder_virtual
						{
							OFFSET 0.000000 0.000000 0.000000
							CHANNELS 3 Xrotation Yrotation Zrotation
							JOINT RightShoulder
							{
								OFFSET -7.570500 7.247704 -3.868750
								CHANNELS 3 Xrotation Yrotation Zrotation
								JOINT RightShoulder_split
								{
									OFFSET -7.570500 7.247704 -3.868750
									CHANNELS 3 Xrotation Yrotation Zrotation
									JOINT RightArm
									{
										OFFSET -9.308998 -2.777710 0.208500
										CHANNELS 3 Xrotation Yrotation Zrotation
										JOINT RightForeArm
										{
											OFFSET -29.972300 0.000000 0.000000
											CHANNELS 3 Xrotation Yrotation Zrotation
											JOINT RightHand
											{
												OFFSET -26.026505 0.000000 0.000000
												CHANNELS 3 Xrotation Yrotation Zrotation
												End Site
												{
													OFFSET 0 0 0
												}
											}
										}
									}
								}
							}
						}
					}
				}
			}
		}
	}
}
MOTION
Frames: 10
Frame Time: 0.03333333
-2.285014 74.128059 2.614777 0.000000 0.000000 0.000000 19.450244 -44.020194 6.755576 -75.114930 -11.617476 15.770441 46.243263 -7.690565 4.538722 22.637503 -1.771866 -14.304142 -0.796911 0.025167 -1.808766 0.000000 0.000000 0.000000 19.450244 -44.020194 6.755576 -29.797612 -6.383605 -20.010159 52.085947 -3.280892 6.721584 -21.599117 -24.367902 22.363344 -1.117560 0.000015 -0.000001 0.000000 0.000000 0.000000 19.450244 -44.020194 6.755576 0.834030 6.780849 -0.815947 -1.588676 4.492974 -2.192218 0.000000 0.000000 0.000000 0.000000 0.000000 0.000000 -1.597448 -0.195616 1.993554 12.118094 6.829913 -4.433334 -0.737341 20.027402 8.229671 0.000000 0.000000 0.000000 -1.597448 -0.195616 1.993554 3.544242 4.756012 -11.623014 0.000000 0.000000 0.000000 -54.038824 -33.116418 -50.381535 0.000030 -81.882357 0.000049 0.000000 0.000000 0.000000 -1.597448 -0.195616 1.993554 -14.733698 2.115975 -4.463086 0.000000 0.000000 0.000000 -107.662476 41.165970 127.346500 -0.000002 29.080698 0.000008 0.000000 0.000000 0.000000 
-2.525196 75.129677 -3.829716 0.000000 0.000000 0.000000 21.616241 -44.546535 7.628335 -77.194484 -4.944725 10.857110 58.711227 -7.301655 1.891798 10.850492 -2.790651 -14.460482 -6.333869 -0.484693 4.358305 0.000000 0.000000 0.000000 21.616241 -44.546535 7.628335 -35.670123 -7.100329 -16.413634 53.811509 -4.242122 9.333681 -21.854456 -22.817589 15.682832 -4.032534 0.000024 0.000007 0.000000 0.000000 0.000000 21.616241 -44.546535 7.628335 1.133165 7.116986 0.314957 -1.310869 4.621461 -2.233292 0.000000 0.000000 0.000000 0.000000 0.000000 0.000000 -1.314410 -0.079132 1.955556 11.539370 6.719167 -4.205099 -1.771497 19.427331 8.399849 0.000000 0.000000 0.000000 -1.314410 -0.079132 1.955556 3.451688 4.257295 -11.406563 0.000000 0.000000 0.000000 -55.761562 -33.679335 -50.844884 0.000348 -80.674178 0.000348 0.000000 0.000000 0.000000 -1.314410 -0.079132 1.955556 -14.702144 2.142266 -4.298179 0.000000 0.000000 0.000000 -107.261339 40.351019 126.260978 -0.000003 28.981999 0.000007 0.000000 0.000000 0.000000 
-2.712518 76.504913 -10.796242 0.000000 0.000000 0.000000 25.271982 -46.967181 9.577979 -75.177556 1.537652 6.788524 65.529689 -4.439653 0.844611 2.709495 -11.378200 -12.087808 -7.523464 -0.667048 5.037543 0.000000 0.000000 0.000000 25.271982 -46.967181 9.577979 -41.451950 -9.613463 -13.048962 53.834431 -6.551774 11.443377 -21.087968 -14.830634 11.987557 -6.474010 -0.000051 -0.000007 0.000000 0.000000 0.000000 25.271982 -46.967181 9.577979 0.939172 8.678093 1.244990 -1.320873 5.331390 -2.300518 0.000000 0.000000 0.000000 0.000000 0.000000 0.000000 -1.329629 0.607854 1.876775 11.123527 6.435099 -4.023549 -2.350641 18.589410 8.709352 0.000000 0.000000 0.000000 -1.329629 0.607854 1.876775 3.596417 4.391568 -11.859934 0.000000 0.000000 0.000000 -57.750889 -35.526194 -51.867562 0.000102 -78.626911 0.000084 0.000000 0.000000 0.000000 -1.329629 0.607854 1.876775 -14.638255 2.328217 -4.086763 0.000000 0.000000 0.000000 -106.215179 40.122485 124.749048 0.000013 29.445509 -0.000018 0.000000 0.000000 0.000000 
-2.819804 77.257240 -18.151787 0.000000 0.000000 0.000000 29.340932 -50.041490 12.245756 -71.821714 4.057064 3.199731 67.139735 -3.655597 0.470388 0.014613 -17.355002 -6.998836 -9.016860 -0.342920 3.571925 0.000000 0.000000 0.000000 29.340932 -50.041490 12.245756 -45.942912 -12.922749 -10.405523 55.356344 -10.132886 9.878503 -20.376539 -4.658643 17.158887 -9.317377 -0.000008 -0.000004 0.000000 0.000000 0.000000 29.340932 -50.041490 12.245756 0.664419 10.329159 1.538643 -1.412597 6.214290 -2.374920 0.000000 0.000000 0.000000 0.000000 0.000000 0.000000 -1.420888 1.466141 1.785862 10.672290 6.126702 -3.745102 -2.899204 17.818767 9.146381 0.000000 0.000000 0.000000 -1.420888 1.466141 1.785862 3.755950 4.786404 -12.306308 0.000000 0.000000 0.000000 -59.645262 -36.720712 -52.832043 0.000148 -77.533507 0.000149 0.000000 0.000000 0.000000 -1.420888 1.466141 1.785862 -14.573086 2.615669 -3.942829 0.000000 0.000000 0.000000 -105.630897 39.843475 123.612490 0.000007 30.127500 -0.000005 0.000000 0.000000 0.000000 
-2.498364 76.464401 -25.506729 0.000000 0.000000 0.000000 32.131406 -52.760701 14.538507 -68.508997 2.964004 -0.433043 66.821646 -2.655833 1.935777 -5.897501 -16.530578 2.710803 -10.550609 -0.000019 0.000002 0.000000 0.000000 0.000000 32.131406 -52.760701 14.538507 -47.906868 -13.158537 -11.791989 58.575176 -6.645507 9.777907 -19.023409 -6.575928 24.602157 -4.071340 0.014722 -0.757949 0.000000 0.000000 0.000000 32.131406 -52.760701 14.538507 0.595598 11.176383 1.141085 -1.441035 6.935546 -2.342153 0.000000 0.000000 0.000000 0.000000 0.000000 0.000000 -1.434995 2.171096 1.809960 10.244959 5.870864 -3.303351 -3.281010 17.247081 9.632432 0.000000 0.000000 0.000000 -1.434995 2.171096 1.809960 3.737830 5.186339 -12.169490 0.000000 0.000000 0.000000 -61.002817 -36.579467 -53.384506 0.000022 -77.789796 0.000024 0.000000 0.000000 0.000000 -1.434995 2.171096 1.809960 -14.485477 2.979853 -3.728753 0.000000 0.000000 0.000000 -105.450901 39.117023 123.007062 0.000005 30.733662 -0.000007 0.000000 0.000000 0.000000 
-1.894222 74.635620 -32.451508 0.000000 0.000000 0.000000 33.114605 -55.193499 14.865973 -68.247155 -0.721497 -0.198500 66.134509 -4.726513 2.766692 -10.197600 -10.074557 9.740885 -7.218429 -0.000002 0.000005 0.000000 0.000000 0.000000 33.114605 -55.193499 14.865973 -43.283308 -9.437583 -15.752873 59.880678 -5.291083 11.290746 -17.283935 -14.512888 32.066440 -4.695194 0.230201 -3.002574 0.000000 0.000000 0.000000 33.114605 -55.193499 14.865973 0.392051 11.551891 1.391887 -1.453272 7.305020 -2.104962 0.000000 0.000000 0.000000 0.000000 0.000000 0.000000 -1.422325 2.536735 2.054909 10.042769 5.701881 -2.874022 -3.276325 16.932497 9.977247 0.000000 0.000000 0.000000 -1.422325 2.536735 2.054909 3.550927 5.581995 -11.496887 0.000000 0.000000 0.000000 -61.351191 -35.791694 -53.544298 0.000054 -78.530025 0.000054 0.000000 0.000000 0.000000 -1.422325 2.536735 2.054909 -14.353373 3.472802 -3.349509 0.000000 0.000000 0.000000 -105.291867 38.536576 122.713187 0.000014 31.045641 -0.000011 0.000000 0.000000 0.000000 
-1.764106 71.911842 -38.702179 0.000000 0.000000 0.000000 32.942655 -56.754706 14.463112 -72.345405 -4.786217 3.885903 68.624283 -8.561240 2.280048 -11.552599 -4.918682 7.039479 -0.957208 0.000022 0.000005 0.000000 0.000000 0.000000 32.942655 -56.754706 14.463112 -35.915095 -5.520938 -19.519639 59.221572 -3.941656 11.150763 -18.261084 -24.895717 27.685219 -0.437415 0.000008 -0.000004 0.000000 0.000000 0.000000 32.942655 -56.754706 14.463112 0.095405 11.415352 1.517753 -1.494045 7.307616 -1.923199 0.000000 0.000000 0.000000 0.000000 0.000000 0.000000 -1.447121 2.538748 2.256061 10.008602 5.653021 -2.565980 -3.392216 16.737227 10.459934 0.000000 0.000000 0.000000 -1.447121 2.538748 2.256061 3.334878 5.817575 -10.768852 0.000000 0.000000 0.000000 -61.147726 -35.377054 -53.281527 -0.000049 -78.871446 -0.000064 0.000000 0.000000 0.000000 -1.447121 2.538748 2.256061 -14.235481 3.916845 -2.985949 0.000000 0.000000 0.000000 -105.275215 38.396790 122.510999 0.000011 31.020315 -0.000017 0.000000 0.000000 0.000000 
-2.214065 69.364265 -43.902344 0.000000 0.000000 0.000000 32.473892 -57.427363 14.386680 -76.910990 -7.281087 8.874069 70.986252 -9.407471 1.835580 -10.084889 -6.321910 2.530514 -0.711870 0.000032 0.000007 0.000000 0.000000 0.000000 32.473892 -57.427363 14.386680 -27.348043 -3.667857 -23.009806 53.092092 -3.064314 7.282953 -14.142266 -33.447713 24.864310 -0.581535 0.000000 0.000000 0.000000 0.000000 0.000000 32.473892 -57.427363 14.386680 -0.138723 11.224212 1.267764 -1.542912 7.113660 -2.007057 0.000000 0.000000 0.000000 0.000000 0.000000 0.000000 -1.506392 2.348776 2.188367 10.057320 5.616585 -2.442210 -3.801612 16.215216 11.127199 0.000000 0.000000 0.000000 -1.506392 2.348776 2.188367 3.229230 5.569755 -10.469486 0.000000 0.000000 0.000000 -61.046803 -35.698629 -52.721926 0.000525 -78.556451 0.000517 0.000000 0.000000 0.000000 -1.506392 2.348776 2.188367 -14.212877 3.948342 -2.841237 0.000000 0.000000 0.000000 -105.256200 38.350057 122.318484 0.000021 30.788184 -0.000008 0.000000 0.000000 0.000000 
-2.953174 67.526711 -48.243195 0.000000 0.000000 0.000000 31.677557 -57.651236 14.718325 -80.167098 -8.674681 13.452256 71.837082 -9.759960 0.937616 -7.151530 -9.646462 -0.772267 -2.109512 0.000001 -0.000002 0.000000 0.000000 0.000000 31.677557 -57.651236 14.718325 -17.589653 -3.529547 -27.621218 42.159974 -0.458391 2.634610 -4.220731 -35.495380 30.067469 -4.670119 -0.000009 -0.000004 0.000000 0.000000 0.000000 31.677557 -57.651236 14.718325 -0.191468 11.211228 0.620488 -1.564682 6.937741 -2.234466 0.000000 0.000000 0.000000 0.000000 0.000000 0.000000 -1.550379 2.186477 1.969673 10.256931 5.472198 -2.556342 -3.841645 15.196344 11.489966 0.000000 0.000000 0.000000 -1.550379 2.186477 1.969673 3.282736 4.847620 -10.756190 0.000000 0.000000 0.000000 -61.042172 -36.454376 -52.156602 0.000181 -77.891505 0.000187 0.000000 0.000000 0.000000 -1.550379 2.186477 1.969673 -14.284290 3.581183 -2.943434 0.000000 0.000000 0.000000 -104.954101 38.366921 122.101284 -0.000011 30.519519 0.000007 0.000000 0.000000 0.000000 
-3.474738 66.332756 -52.085899 0.000000 0.000000 0.000000 30.834291 -58.204277 15.532578 -81.253693 -9.753695 16.690793 71.262888 -9.669053 0.799553 -5.222949 -11.542896 -4.426740 -2.604859 -0.000004 -0.000003 0.000000 0.000000 0.000000 30.834291 -58.204277 15.532578 -8.666146 -4.369524 -30.623252 31.065340 -1.077633 -3.895393 8.741259 -36.547437 36.486645 -6.475093 0.000003 -0.000018 0.000000 0.000000 0.000000 30.834291 -58.204277 15.532578 0.007507 11.405929 -0.504388 -1.445909 6.883736 -2.479883 0.000000 0.000000 0.000000 0.000000 0.000000 0.000000 -1.437366 2.154572 1.742637 10.503758 5.259779 -2.849513 -3.232142 14.165004 11.146797 0.000000 0.000000 0.000000 -1.437366 2.154572 1.742637 3.443606 4.197402 -11.398956 0.000000 0.000000 0.000000 -60.879996 -37.143590 -51.931660 -0.000003 -77.288959 0.000007 0.000000 0.000000 0.000000 -1.437366 2.154572 1.742637 -14.393548 3.219231 -3.282610 0.000000 0.000000 0.000000 -104.731402 38.866519 121.968874 0.000007 30.312953 -0.000010 0.000000 0.000000 0.000000 
